Patient4_TMGait_0pt4_03_right_22_GRF.mot
version=1
nRows=51
nColumns=19
inDegrees=no
endheader
time	F1x	F1y	F1z	M1x	M1y	M1z	F2x	F2y	F2z	M2x	M2y	M2z	EC1x	EC1y	EC1z	EC2x	EC2y	EC2z
28.11	15.3923	794.3466	81.5084	-276.8528	-89.0601	900.1444	-2.1295	16.4374	-2.332	4.8237	0.66272	13.8075	-0.0592	0.0182	-0.0073	-0.0462	0.0165	0.9585
28.1234	10.1755	788.3527	78.8196	-274.7211	-86.309	888.5644	-1.5138	11.4258	-1.5687	3.4123	0.49053	9.7299	-0.0592	0.0182	-0.0073	-0.0462	0.0165	0.9585
28.1369	6.1345	780.1421	76.2251	-271.7791	-83.412	874.5818	-0.98547	7.2685	-0.939	2.2399	0.3689	6.389	-0.0592	0.0182	-0.0073	-0.0462	0.0165	0.9585
28.1503	3.5818	770.1353	73.8254	-268.1833	-80.4545	858.8858	-0.58233	4.1832	-0.48026	1.37	0.30359	3.9457	-0.0592	0.0182	-0.0073	-0.0462	0.0165	0.9585
28.1637	2.5053	759.0852	71.6828	-264.2089	-77.5113	842.365	-0.31238	2.1176	-0.17113	0.78917	0.27555	2.3391	-0.0592	0.0182	-0.0073	-0.0462	0.0165	0.9585
28.1771	2.7215	747.8957	69.8143	-260.183	-74.6301	825.9712	-0.17419	0.87771	0.0046363	0.44091	0.28633	1.3965	-0.0592	0.0182	-0.0073	-0.0462	0.0165	0.9585
28.1906	3.9679	737.4851	68.2026	-256.4369	-71.8301	810.6302	-0.13455	0.21937	0.082832	0.25346	0.32487	0.8945	-0.0592	0.0182	-0.0073	-0.0462	0.0165	0.9585
28.204	5.9945	728.6805	66.8166	-253.2667	-69.1084	797.146	-0.1819	-0.11048	0.081587	0.14926	0.40076	0.60743	-0.0592	0.0182	-0.0073	-0.0462	0.0165	0.9585
28.2174	8.5851	722.1224	65.6156	-250.8982	-66.4491	786.1223	-0.30111	-0.36796	0.031935	0.049229	0.50248	0.29231	-0.0592	0.0182	-0.0073	-0.0462	0.0165	0.9585
28.2309	11.5722	718.1956	64.5864	-249.4605	-63.8559	777.9069	-0.47087	-0.76811	-0.054597	-0.117	0.63308	-0.26042	-0.0592	0.0182	-0.0073	-0.0462	0.0165	0.9585
28.2443	14.8464	717.0203	63.7198	-248.9843	-61.3315	772.5781	-0.66833	-1.4892	-0.14951	-0.41052	0.77211	-1.2307	-0.0592	0.0182	-0.0073	-0.0462	0.0165	0.9585
28.2577	18.3174	718.4566	63.0328	-249.4027	-58.9111	769.97	-0.86132	-2.6839	-0.23754	-0.88257	0.89931	-2.7813	-0.0592	0.0182	-0.0073	-0.0462	0.0165	0.9585
28.2711	21.9247	722.1296	62.5368	-250.5615	-56.6283	769.6809	-1.0027	-4.4052	-0.29305	-1.5508	0.97432	-4.9607	-0.0592	0.0182	-0.0073	-0.0462	0.0165	0.9585
28.2846	25.6104	727.4728	62.2684	-252.2377	-54.5444	771.1407	-1.0024	-6.588	-0.29295	-2.3892	0.93937	-7.6881	-0.0592	0.0182	-0.0073	-0.0462	0.0165	0.9585
28.298	29.3371	733.7999	62.2561	-254.17	-52.7154	773.6725	-0.76354	-8.9844	-0.20249	-3.301	0.71557	-10.659	-0.0592	0.0182	-0.0073	-0.0462	0.0165	0.9585
28.3114	33.0374	740.3212	62.538	-256.0657	-51.216	776.525	-0.15092	-11.0747	0.014835	-4.0864	0.20973	-13.2434	-0.0592	0.0182	-0.0073	-0.0462	0.0165	0.9585
28.3249	36.6056	746.1247	63.1173	-257.5971	-50.0964	778.8383	1.0059	-11.9816	0.4004	-4.4119	-0.68999	-14.3742	-0.0592	0.0182	-0.0073	-0.0462	0.0165	0.9585
28.3383	39.9114	750.199	63.9648	-258.4103	-49.3838	779.6606	2.8556	-10.4062	0.99255	-3.7868	-2.0866	-12.455	-0.0592	0.0182	-0.0073	-0.0462	0.0165	0.9585
28.3517	42.8128	751.5317	64.9823	-258.1596	-49.0421	778.0462	5.513	-4.6036	1.8121	-1.5542	-4.0435	-5.3463	-0.0592	0.0182	-0.0073	-0.0462	0.0165	0.9585
28.3651	45.2249	749.2175	66.0232	-256.5495	-48.9659	773.1208	8.9687	7.5672	2.8431	3.0885	-6.5295	9.5856	-0.0592	0.0182	-0.0073	-0.0462	0.0165	0.9585
28.3786	47.1163	742.546	66.8973	-253.3619	-48.9767	764.1749	12.9958	28.3965	3.9971	10.9966	-9.3436	35.1644	-0.0592	0.0182	-0.0073	-0.0462	0.0165	0.9585
28.392	48.5167	730.9874	67.3896	-248.4488	-48.8481	750.65	17.0244	59.8711	5.0877	22.9023	-12.0337	73.8477	-0.0592	0.0182	-0.0073	-0.0462	0.0165	0.9585
28.4054	49.4586	714.0746	67.2825	-241.6933	-48.3464	732.0325	19.992	102.8988	5.7725	39.1211	-13.775	126.7794	-0.0592	0.0182	-0.0073	-0.0462	0.0165	0.9585
28.4189	49.9378	691.3375	66.356	-232.9891	-47.2525	707.8048	20.28	156.1804	5.529	59.132	-13.329	192.3993	-0.0592	0.0182	-0.0073	-0.0462	0.0165	0.9585
28.4323	49.8985	662.341	64.3821	-222.2564	-45.3574	677.4935	16.1214	215.1862	3.737	81.1916	-9.3147	265.1747	-0.0592	0.0182	-0.0073	-0.0462	0.0165	0.9585
28.4457	49.2366	626.852	61.1898	-209.4913	-42.5245	640.8469	7.6533	272.9061	-0.27491	102.6269	-1.0745	336.4907	-0.0592	0.0182	-0.0073	-0.0462	0.0165	0.9585
28.4591	47.8418	585.0986	56.7447	-194.8301	-38.7518	598.0718	-2.7601	323.5255	-6.1842	121.2598	10.0725	398.9694	-0.0592	0.0182	-0.0073	-0.0462	0.0165	0.9585
28.4726	45.6346	537.8037	51.3201	-178.5392	-34.318	549.8631	-13.0901	365.1568	-13.2689	136.422	22.4591	449.9859	-0.0592	0.0182	-0.0073	-0.0462	0.0165	0.9585
28.486	42.5884	486.1387	45.3391	-160.9972	-29.6245	497.3561	-22.3563	400.1082	-20.3883	149.0436	34.3908	492.2279	-0.0592	0.0182	-0.0073	-0.0462	0.0165	0.9585
28.4994	38.7531	431.6071	39.2495	-142.6673	-25.0739	442.0115	-30.0713	432.2683	-26.8617	160.6326	44.8852	530.4523	-0.0592	0.0182	-0.0073	-0.0462	0.0165	0.9585
28.5129	34.2347	375.8574	33.3474	-124.0525	-20.907	385.4407	-36.0504	464.9676	-32.1847	172.4642	53.3374	568.7608	-0.0592	0.0182	-0.0073	-0.0462	0.0165	0.9585
28.5263	29.1402	320.4956	27.8098	-105.643	-17.2537	329.2194	-40.1818	499.8002	-36.5287	185.1258	59.9104	609.1387	-0.0592	0.0182	-0.0073	-0.0462	0.0165	0.9585
28.5397	23.5671	267.0793	22.7209	-87.9181	-14.1671	274.912	-42.493	536.8977	-40.1827	198.6264	65.0055	651.7831	-0.0592	0.0182	-0.0073	-0.0462	0.0165	0.9585
28.5531	17.6799	217.038	18.1764	-71.3295	-11.6965	223.967	-43.2825	575.3472	-43.7786	212.5503	69.4631	695.7238	-0.0592	0.0182	-0.0073	-0.0462	0.0165	0.9585
28.5666	11.7421	171.6695	14.2565	-56.2947	-9.8456	177.6956	-42.9927	613.5418	-47.6479	226.2482	73.8646	739.1531	-0.0592	0.0182	-0.0073	-0.0462	0.0165	0.9585
28.58	6.1177	131.9392	11.037	-43.1296	-8.5745	137.0694	-42.2153	649.839	-52.0349	239.0793	78.6899	780.2704	-0.0592	0.0182	-0.0073	-0.0462	0.0165	0.9585
28.5934	1.194	98.2479	8.4913	-31.9739	-7.736	102.4912	-41.3454	682.9998	-56.7187	250.5981	83.8401	817.6804	-0.0592	0.0182	-0.0073	-0.0462	0.0165	0.9585
28.6069	-2.7584	70.4878	6.5091	-22.8012	-7.1359	73.8877	-40.5898	712.2166	-61.347	260.5422	88.9663	850.4708	-0.0592	0.0182	-0.0073	-0.0462	0.0165	0.9585
28.6203	-5.5257	48.2275	4.939	-15.4768	-6.5527	50.8446	-40.0334	736.884	-65.4407	268.7405	93.5441	877.9432	-0.0592	0.0182	-0.0073	-0.0462	0.0165	0.9585
28.6337	-6.9829	30.8733	3.6417	-9.8037	-5.8018	32.8012	-39.6582	756.4314	-68.7832	275.0301	97.2969	899.4344	-0.0592	0.0182	-0.0073	-0.0462	0.0165	0.9585
28.6471	-7.1125	17.7846	2.5275	-5.5633	-4.7885	19.1295	-39.4275	770.4101	-71.2727	279.2815	100.0859	914.4389	-0.0592	0.0182	-0.0073	-0.0462	0.0165	0.9585
28.6606	-6.1681	8.426	1.5819	-2.5663	-3.5848	9.2941	-39.263	778.5378	-72.9087	281.4303	101.8745	922.6194	-0.0592	0.0182	-0.0073	-0.0462	0.0165	0.9585
28.674	-4.7373	2.3344	0.84685	-0.64291	-2.4182	2.853	-39.1179	780.9556	-73.677	281.561	102.6303	924.1273	-0.0592	0.0182	-0.0073	-0.0462	0.0165	0.9585
28.6874	-3.2287	-1.1663	0.34894	0.43695	-1.4494	-0.87812	-38.9128	778.3233	-73.5894	279.9428	102.3495	919.7011	-0.0592	0.0182	-0.0073	-0.0462	0.0165	0.9585
28.7009	-1.9147	-2.7664	0.04145	0.90629	-0.72367	-2.5938	-38.5917	771.815	-72.7163	277.0225	101.1037	910.6808	-0.0592	0.0182	-0.0073	-0.0462	0.0165	0.9585
28.7143	-0.87484	-3.1153	-0.10576	0.97975	-0.24356	-3.0065	-38.127	762.9265	-71.1846	273.3557	99.039	898.7748	-0.0592	0.0182	-0.0073	-0.0462	0.0165	0.9585
28.7277	-0.13707	-2.7308	-0.15415	0.82707	0.037528	-2.657	-37.4803	753.2299	-69.1974	269.5132	96.3783	885.7593	-0.0592	0.0182	-0.0073	-0.0462	0.0165	0.9585
28.7411	0.34015	-1.9937	-0.13577	0.57089	0.16155	-1.9367	-36.6397	744.1786	-66.9536	266.0151	93.3469	873.2625	-0.0592	0.0182	-0.0073	-0.0462	0.0165	0.9585
28.7546	0.62379	-1.1595	-0.089154	0.29172	0.187	-1.1147	-35.5936	736.9467	-64.6642	263.2747	90.1811	862.5892	-0.0592	0.0182	-0.0073	-0.0462	0.0165	0.9585
28.768	0.73913	-0.36811	-0.031962	0.033992	0.14615	-0.31405	-34.3326	732.3408	-62.4819	261.5686	87.0519	854.6252	-0.0592	0.0182	-0.0073	-0.0462	0.0165	0.9585
28.7814	0.769	0.29513	0.020969	-0.17888	0.08199	0.35472	-32.8483	730.7593	-60.5544	261.0222	84.1115	849.7934	-0.0592	0.0182	-0.0073	-0.0462	0.0165	0.9585
